<svg width="242" height="35" viewBox="0 0 242 35" fill="none" xmlns="http://www.w3.org/2000/svg">
<path d="M9.75977 17.6309H5.55859V27H0.285156V1.40625H9.79492C12.8184 1.40625 15.1504 2.08008 16.791 3.42773C18.4316 4.77539 19.252 6.67969 19.252 9.14062C19.252 10.8867 18.8711 12.3457 18.1094 13.5176C17.3594 14.6777 16.2168 15.6035 14.6816 16.2949L20.2188 26.7539V27H14.5586L9.75977 17.6309ZM5.55859 13.3594H9.8125C11.1367 13.3594 12.1621 13.0254 12.8887 12.3574C13.6152 11.6777 13.9785 10.7461 13.9785 9.5625C13.9785 8.35547 13.6328 7.40625 12.9414 6.71484C12.2617 6.02344 11.2129 5.67773 9.79492 5.67773H5.55859V13.3594ZM33.9648 27C33.7305 26.543 33.5605 25.9746 33.4551 25.2949C32.2246 26.666 30.625 27.3516 28.6562 27.3516C26.793 27.3516 25.2461 26.8125 24.0156 25.7344C22.7969 24.6562 22.1875 23.2969 22.1875 21.6562C22.1875 19.6406 22.9316 18.0938 24.4199 17.0156C25.9199 15.9375 28.082 15.3926 30.9062 15.3809H33.2441V14.291C33.2441 13.4121 33.0156 12.709 32.5586 12.1816C32.1133 11.6543 31.4043 11.3906 30.4316 11.3906C29.5762 11.3906 28.9023 11.5957 28.4102 12.0059C27.9297 12.416 27.6895 12.9785 27.6895 13.6934H22.6094C22.6094 12.5918 22.9492 11.5723 23.6289 10.6348C24.3086 9.69727 25.2695 8.96484 26.5117 8.4375C27.7539 7.89844 29.1484 7.62891 30.6953 7.62891C33.0391 7.62891 34.8965 8.2207 36.2676 9.4043C37.6504 10.5762 38.3418 12.2285 38.3418 14.3613V22.6055C38.3535 24.4102 38.6055 25.7754 39.0977 26.7012V27H33.9648ZM29.7637 23.4668C30.5137 23.4668 31.2051 23.3027 31.8379 22.9746C32.4707 22.6348 32.9395 22.1836 33.2441 21.6211V18.3516H31.3457C28.8027 18.3516 27.4492 19.2305 27.2852 20.9883L27.2676 21.2871C27.2676 21.9199 27.4902 22.4414 27.9355 22.8516C28.3809 23.2617 28.9902 23.4668 29.7637 23.4668ZM46.9199 7.98047L47.0781 10.1777C48.4375 8.47852 50.2598 7.62891 52.5449 7.62891C54.5605 7.62891 56.0605 8.2207 57.0449 9.4043C58.0293 10.5879 58.5332 12.3574 58.5566 14.7129V27H53.4766V14.8359C53.4766 13.7578 53.2422 12.9785 52.7734 12.498C52.3047 12.0059 51.5254 11.7598 50.4355 11.7598C49.0059 11.7598 47.9336 12.3691 47.2188 13.5879V27H42.1387V7.98047H46.9199ZM61.6328 17.3496C61.6328 14.3848 62.2949 12.0234 63.6191 10.2656C64.9551 8.50781 66.7773 7.62891 69.0859 7.62891C70.9375 7.62891 72.4668 8.32031 73.6738 9.70312V0H78.7715V27H74.1836L73.9375 24.9785C72.6719 26.5605 71.043 27.3516 69.0508 27.3516C66.8125 27.3516 65.0137 26.4727 63.6543 24.7148C62.3066 22.9453 61.6328 20.4902 61.6328 17.3496ZM66.7129 17.7188C66.7129 19.5 67.0234 20.8652 67.6445 21.8145C68.2656 22.7637 69.168 23.2383 70.3516 23.2383C71.9219 23.2383 73.0293 22.5762 73.6738 21.252V13.7461C73.041 12.4219 71.9453 11.7598 70.3867 11.7598C67.9375 11.7598 66.7129 13.7461 66.7129 17.7188ZM81.918 17.3145C81.918 15.4277 82.2812 13.7461 83.0078 12.2695C83.7344 10.793 84.7773 9.65039 86.1367 8.8418C87.5078 8.0332 89.0957 7.62891 90.9004 7.62891C93.4668 7.62891 95.5586 8.41406 97.1758 9.98438C98.8047 11.5547 99.7129 13.6875 99.9004 16.3828L99.9355 17.6836C99.9355 20.6016 99.1211 22.9453 97.4922 24.7148C95.8633 26.4727 93.6777 27.3516 90.9355 27.3516C88.1934 27.3516 86.002 26.4727 84.3613 24.7148C82.7324 22.957 81.918 20.5664 81.918 17.543V17.3145ZM86.998 17.6836C86.998 19.4883 87.3379 20.8711 88.0176 21.832C88.6973 22.7812 89.6699 23.2559 90.9355 23.2559C92.166 23.2559 93.127 22.7871 93.8184 21.8496C94.5098 20.9004 94.8555 19.3887 94.8555 17.3145C94.8555 15.5449 94.5098 14.1738 93.8184 13.2012C93.127 12.2285 92.1543 11.7422 90.9004 11.7422C89.6582 11.7422 88.6973 12.2285 88.0176 13.2012C87.3379 14.1621 86.998 15.6562 86.998 17.6836ZM107.828 7.98047L107.986 10.1074C109.334 8.45508 111.156 7.62891 113.453 7.62891C115.902 7.62891 117.584 8.5957 118.498 10.5293C119.834 8.5957 121.738 7.62891 124.211 7.62891C126.273 7.62891 127.809 8.23242 128.816 9.43945C129.824 10.6348 130.328 12.4395 130.328 14.8535V27H125.23V14.8711C125.23 13.793 125.02 13.0078 124.598 12.5156C124.176 12.0117 123.432 11.7598 122.365 11.7598C120.842 11.7598 119.787 12.4863 119.201 13.9395L119.219 27H114.139V14.8887C114.139 13.7871 113.922 12.9902 113.488 12.498C113.055 12.0059 112.316 11.7598 111.273 11.7598C109.832 11.7598 108.789 12.3574 108.145 13.5527V27H103.064V7.98047H107.828Z" fill="white"/>
<path d="M141.473 1.40625L148.047 19.9688L154.586 1.40625H161.512V27H156.221V20.0039L156.748 7.92773L149.84 27H146.219L139.328 7.94531L139.855 20.0039V27H134.582V1.40625H141.473ZM176.805 27C176.57 26.543 176.4 25.9746 176.295 25.2949C175.064 26.666 173.465 27.3516 171.496 27.3516C169.633 27.3516 168.086 26.8125 166.855 25.7344C165.637 24.6562 165.027 23.2969 165.027 21.6562C165.027 19.6406 165.771 18.0938 167.26 17.0156C168.76 15.9375 170.922 15.3926 173.746 15.3809H176.084V14.291C176.084 13.4121 175.855 12.709 175.398 12.1816C174.953 11.6543 174.244 11.3906 173.271 11.3906C172.416 11.3906 171.742 11.5957 171.25 12.0059C170.77 12.416 170.529 12.9785 170.529 13.6934H165.449C165.449 12.5918 165.789 11.5723 166.469 10.6348C167.148 9.69727 168.109 8.96484 169.352 8.4375C170.594 7.89844 171.988 7.62891 173.535 7.62891C175.879 7.62891 177.736 8.2207 179.107 9.4043C180.49 10.5762 181.182 12.2285 181.182 14.3613V22.6055C181.193 24.4102 181.445 25.7754 181.938 26.7012V27H176.805ZM172.604 23.4668C173.354 23.4668 174.045 23.3027 174.678 22.9746C175.311 22.6348 175.779 22.1836 176.084 21.6211V18.3516H174.186C171.643 18.3516 170.289 19.2305 170.125 20.9883L170.107 21.2871C170.107 21.9199 170.33 22.4414 170.775 22.8516C171.221 23.2617 171.83 23.4668 172.604 23.4668ZM189.76 7.98047L189.918 10.1777C191.277 8.47852 193.1 7.62891 195.385 7.62891C197.4 7.62891 198.9 8.2207 199.885 9.4043C200.869 10.5879 201.373 12.3574 201.396 14.7129V27H196.316V14.8359C196.316 13.7578 196.082 12.9785 195.613 12.498C195.145 12.0059 194.365 11.7598 193.275 11.7598C191.846 11.7598 190.773 12.3691 190.059 13.5879V27H184.979V7.98047H189.76ZM204.525 17.3496C204.525 14.4316 205.217 12.082 206.6 10.3008C207.994 8.51953 209.869 7.62891 212.225 7.62891C214.311 7.62891 215.934 8.34375 217.094 9.77344L217.305 7.98047H221.91V26.3672C221.91 28.0312 221.529 29.4785 220.768 30.709C220.018 31.9395 218.957 32.877 217.586 33.5215C216.215 34.166 214.609 34.4883 212.77 34.4883C211.375 34.4883 210.016 34.207 208.691 33.6445C207.367 33.0938 206.365 32.3789 205.686 31.5L207.936 28.4062C209.201 29.8242 210.736 30.5332 212.541 30.5332C213.889 30.5332 214.938 30.1699 215.688 29.4434C216.438 28.7285 216.812 27.709 216.812 26.3848V25.3652C215.641 26.6895 214.1 27.3516 212.189 27.3516C209.904 27.3516 208.053 26.4609 206.635 24.6797C205.229 22.8867 204.525 20.5137 204.525 17.5605V17.3496ZM209.605 17.7188C209.605 19.4414 209.951 20.7949 210.643 21.7793C211.334 22.752 212.283 23.2383 213.49 23.2383C215.037 23.2383 216.145 22.6582 216.812 21.498V13.5C216.133 12.3398 215.037 11.7598 213.525 11.7598C212.307 11.7598 211.346 12.2578 210.643 13.2539C209.951 14.25 209.605 15.7383 209.605 17.7188ZM236.852 27C236.617 26.543 236.447 25.9746 236.342 25.2949C235.111 26.666 233.512 27.3516 231.543 27.3516C229.68 27.3516 228.133 26.8125 226.902 25.7344C225.684 24.6562 225.074 23.2969 225.074 21.6562C225.074 19.6406 225.818 18.0938 227.307 17.0156C228.807 15.9375 230.969 15.3926 233.793 15.3809H236.131V14.291C236.131 13.4121 235.902 12.709 235.445 12.1816C235 11.6543 234.291 11.3906 233.318 11.3906C232.463 11.3906 231.789 11.5957 231.297 12.0059C230.816 12.416 230.576 12.9785 230.576 13.6934H225.496C225.496 12.5918 225.836 11.5723 226.516 10.6348C227.195 9.69727 228.156 8.96484 229.398 8.4375C230.641 7.89844 232.035 7.62891 233.582 7.62891C235.926 7.62891 237.783 8.2207 239.154 9.4043C240.537 10.5762 241.229 12.2285 241.229 14.3613V22.6055C241.24 24.4102 241.492 25.7754 241.984 26.7012V27H236.852ZM232.65 23.4668C233.4 23.4668 234.092 23.3027 234.725 22.9746C235.357 22.6348 235.826 22.1836 236.131 21.6211V18.3516H234.232C231.689 18.3516 230.336 19.2305 230.172 20.9883L230.154 21.2871C230.154 21.9199 230.377 22.4414 230.822 22.8516C231.268 23.2617 231.877 23.4668 232.65 23.4668Z" fill="#10ABEE"/>
</svg>
