<svg width="213" height="35" viewBox="0 0 213 35" fill="none" xmlns="http://www.w3.org/2000/svg">
<path d="M10.4434 17.9648H7.10352V27H0.933594V1.40625H11.0059C14.041 1.40625 16.4141 2.08008 18.125 3.42773C19.8359 4.77539 20.6914 6.67969 20.6914 9.14062C20.6914 10.9219 20.3281 12.3984 19.6016 13.5703C18.8867 14.7422 17.7617 15.6914 16.2266 16.418L21.5703 26.7363V27H14.9609L10.4434 17.9648ZM7.10352 13.2012H11.0059C12.1777 13.2012 13.0566 12.8965 13.6426 12.2871C14.2402 11.666 14.5391 10.8047 14.5391 9.70312C14.5391 8.60156 14.2402 7.74023 13.6426 7.11914C13.0449 6.48633 12.166 6.16992 11.0059 6.16992H7.10352V13.2012ZM34.8594 27C34.6484 26.6133 34.4609 26.0449 34.2969 25.2949C33.207 26.666 31.6836 27.3516 29.7266 27.3516C27.9336 27.3516 26.4102 26.8125 25.1562 25.7344C23.9023 24.6445 23.2754 23.2793 23.2754 21.6387C23.2754 19.5762 24.0371 18.0176 25.5605 16.9629C27.084 15.9082 29.2988 15.3809 32.2051 15.3809H34.0332V14.3789C34.0332 12.6328 33.2773 11.7598 31.7656 11.7598C30.3594 11.7598 29.6562 12.4512 29.6562 13.834H23.7324C23.7324 11.9941 24.5117 10.5 26.0703 9.35156C27.6406 8.20313 29.6387 7.62891 32.0645 7.62891C34.4902 7.62891 36.4062 8.2207 37.8125 9.4043C39.2188 10.5879 39.9395 12.2109 39.9746 14.2734V22.6934C39.998 24.4395 40.2676 25.7754 40.7832 26.7012V27H34.8594ZM31.1504 23.1328C31.8887 23.1328 32.498 22.9746 32.9785 22.6582C33.4707 22.3418 33.8223 21.9844 34.0332 21.5859V18.5449H32.3105C30.248 18.5449 29.2168 19.4707 29.2168 21.3223C29.2168 21.8613 29.3984 22.3008 29.7617 22.6406C30.125 22.9688 30.5879 23.1328 31.1504 23.1328ZM48.7109 7.98047L48.9043 10.2129C50.2168 8.49023 52.0273 7.62891 54.3359 7.62891C56.3164 7.62891 57.793 8.2207 58.7656 9.4043C59.75 10.5879 60.2598 12.3691 60.2949 14.748V27H54.3535V14.9941C54.3535 14.0332 54.1602 13.3301 53.7734 12.8848C53.3867 12.4277 52.6836 12.1992 51.6641 12.1992C50.5039 12.1992 49.6426 12.6562 49.0801 13.5703V27H43.1562V7.98047H48.7109ZM62.8438 17.3496C62.8438 14.3379 63.4941 11.9648 64.7949 10.2305C66.0957 8.49609 67.9121 7.62891 70.2441 7.62891C71.9434 7.62891 73.373 8.29688 74.5332 9.63281V0H80.4746V27H75.1484L74.8496 24.9609C73.6309 26.5547 72.084 27.3516 70.209 27.3516C67.9473 27.3516 66.1543 26.4844 64.8301 24.75C63.5059 23.0156 62.8438 20.5488 62.8438 17.3496ZM68.7676 17.7188C68.7676 21.0938 69.752 22.7812 71.7207 22.7812C73.0332 22.7812 73.9707 22.2305 74.5332 21.1289V13.8867C73.9941 12.7617 73.0684 12.1992 71.7559 12.1992C69.9277 12.1992 68.9375 13.6758 68.7852 16.6289L68.7676 17.7188ZM83.0938 17.3145C83.0938 15.416 83.4629 13.7285 84.2012 12.252C84.9395 10.7637 86 9.62109 87.3828 8.82422C88.7656 8.02734 90.3887 7.62891 92.252 7.62891C95.0996 7.62891 97.3438 8.51367 98.9844 10.2832C100.625 12.041 101.445 14.4375 101.445 17.4727V17.6836C101.445 20.6484 100.619 23.0039 98.9668 24.75C97.3262 26.4844 95.0996 27.3516 92.2871 27.3516C89.5801 27.3516 87.4062 26.543 85.7656 24.9258C84.125 23.2969 83.2402 21.0938 83.1113 18.3164L83.0938 17.3145ZM89.0176 17.6836C89.0176 19.4414 89.293 20.7305 89.8438 21.5508C90.3945 22.3711 91.209 22.7812 92.2871 22.7812C94.3965 22.7812 95.4746 21.1582 95.5215 17.9121V17.3145C95.5215 13.9043 94.4316 12.1992 92.252 12.1992C90.2715 12.1992 89.1992 13.6699 89.0352 16.6113L89.0176 17.6836Z" fill="white"/>
<path d="M112.432 1.40625L118.145 19.2129L123.84 1.40625H131.961V27H125.773V21.0234L126.371 8.78906L120.184 27H116.105L109.9 8.77148L110.498 21.0234V27H104.328V1.40625H112.432ZM146.34 27C146.129 26.6133 145.941 26.0449 145.777 25.2949C144.688 26.666 143.164 27.3516 141.207 27.3516C139.414 27.3516 137.891 26.8125 136.637 25.7344C135.383 24.6445 134.756 23.2793 134.756 21.6387C134.756 19.5762 135.518 18.0176 137.041 16.9629C138.564 15.9082 140.779 15.3809 143.686 15.3809H145.514V14.3789C145.514 12.6328 144.758 11.7598 143.246 11.7598C141.84 11.7598 141.137 12.4512 141.137 13.834H135.213C135.213 11.9941 135.992 10.5 137.551 9.35156C139.121 8.20313 141.119 7.62891 143.545 7.62891C145.971 7.62891 147.887 8.2207 149.293 9.4043C150.699 10.5879 151.42 12.2109 151.455 14.2734V22.6934C151.479 24.4395 151.748 25.7754 152.264 26.7012V27H146.34ZM142.631 23.1328C143.369 23.1328 143.979 22.9746 144.459 22.6582C144.951 22.3418 145.303 21.9844 145.514 21.5859V18.5449H143.791C141.729 18.5449 140.697 19.4707 140.697 21.3223C140.697 21.8613 140.879 22.3008 141.242 22.6406C141.605 22.9688 142.068 23.1328 142.631 23.1328ZM160.191 7.98047L160.385 10.2129C161.697 8.49023 163.508 7.62891 165.816 7.62891C167.797 7.62891 169.273 8.2207 170.246 9.4043C171.23 10.5879 171.74 12.3691 171.775 14.748V27H165.834V14.9941C165.834 14.0332 165.641 13.3301 165.254 12.8848C164.867 12.4277 164.164 12.1992 163.145 12.1992C161.984 12.1992 161.123 12.6562 160.561 13.5703V27H154.637V7.98047H160.191ZM174.377 17.3496C174.377 15.4277 174.693 13.7285 175.326 12.252C175.959 10.7754 176.867 9.63867 178.051 8.8418C179.234 8.0332 180.611 7.62891 182.182 7.62891C184.162 7.62891 185.709 8.29688 186.822 9.63281L187.033 7.98047H192.412V26.2793C192.412 27.9551 192.02 29.4082 191.234 30.6387C190.461 31.8809 189.336 32.8301 187.859 33.4863C186.383 34.1543 184.672 34.4883 182.727 34.4883C181.332 34.4883 179.979 34.2246 178.666 33.6973C177.365 33.1699 176.369 32.4844 175.678 31.6406L178.156 28.1602C179.258 29.4609 180.711 30.1113 182.516 30.1113C185.141 30.1113 186.453 28.7637 186.453 26.0684V25.4707C185.316 26.7246 183.881 27.3516 182.146 27.3516C179.826 27.3516 177.951 26.4668 176.521 24.6973C175.092 22.916 174.377 20.5371 174.377 17.5605V17.3496ZM180.318 17.7188C180.318 19.2773 180.611 20.5137 181.197 21.4277C181.783 22.3301 182.604 22.7812 183.658 22.7812C184.936 22.7812 185.867 22.3535 186.453 21.498V13.5C185.879 12.6328 184.959 12.1992 183.693 12.1992C182.639 12.1992 181.812 12.6738 181.215 13.623C180.617 14.5605 180.318 15.9258 180.318 17.7188ZM206.492 27C206.281 26.6133 206.094 26.0449 205.93 25.2949C204.84 26.666 203.316 27.3516 201.359 27.3516C199.566 27.3516 198.043 26.8125 196.789 25.7344C195.535 24.6445 194.908 23.2793 194.908 21.6387C194.908 19.5762 195.67 18.0176 197.193 16.9629C198.717 15.9082 200.932 15.3809 203.838 15.3809H205.666V14.3789C205.666 12.6328 204.91 11.7598 203.398 11.7598C201.992 11.7598 201.289 12.4512 201.289 13.834H195.365C195.365 11.9941 196.145 10.5 197.703 9.35156C199.273 8.20313 201.271 7.62891 203.697 7.62891C206.123 7.62891 208.039 8.2207 209.445 9.4043C210.852 10.5879 211.572 12.2109 211.607 14.2734V22.6934C211.631 24.4395 211.9 25.7754 212.416 26.7012V27H206.492ZM202.783 23.1328C203.521 23.1328 204.131 22.9746 204.611 22.6582C205.104 22.3418 205.455 21.9844 205.666 21.5859V18.5449H203.943C201.881 18.5449 200.85 19.4707 200.85 21.3223C200.85 21.8613 201.031 22.3008 201.395 22.6406C201.758 22.9688 202.221 23.1328 202.783 23.1328Z" fill="#10ABEE"/>
</svg>
