<svg width="27" height="27" viewBox="0 0 27 27" fill="none" xmlns="http://www.w3.org/2000/svg">
<path d="M23.2022 21.499C24.5486 19.8791 25.485 17.9587 25.9322 15.9004C26.3794 13.8421 26.3243 11.7063 25.7716 9.67376C25.2188 7.64121 24.1846 5.7717 22.7566 4.22337C21.3285 2.67505 19.5485 1.49345 17.5671 0.778539C15.5858 0.0636294 13.4614 -0.16356 11.3737 0.11619C9.28601 0.39594 7.29639 1.1744 5.57317 2.38571C3.84995 3.59703 2.44383 5.20556 1.47374 7.07524C0.50366 8.94493 -0.00183993 11.0208 5.03217e-06 13.1271C0.000713008 16.1892 1.07977 19.1532 3.04782 21.499L3.02907 21.5149C3.09469 21.5937 3.16969 21.6612 3.23719 21.739C3.32157 21.8356 3.4125 21.9265 3.49969 22.0202C3.76219 22.3052 4.03219 22.579 4.31532 22.8359C4.40157 22.9146 4.49063 22.9877 4.57782 23.0627C4.87782 23.3215 5.18626 23.5671 5.50594 23.7959C5.54719 23.824 5.58469 23.8606 5.62594 23.8896V23.8784C7.82166 25.4235 10.441 26.2528 13.1259 26.2528C15.8108 26.2528 18.4302 25.4235 20.6259 23.8784V23.8896C20.6672 23.8606 20.7038 23.824 20.7459 23.7959C21.0647 23.5662 21.3741 23.3215 21.6741 23.0627C21.7613 22.9877 21.8503 22.9137 21.9366 22.8359C22.2197 22.5781 22.4897 22.3052 22.7522 22.0202C22.8394 21.9265 22.9294 21.8356 23.0147 21.739C23.0813 21.6612 23.1572 21.5937 23.2228 21.514L23.2022 21.499ZM13.125 5.62712C13.9594 5.62712 14.775 5.87454 15.4688 6.3381C16.1626 6.80166 16.7033 7.46054 17.0226 8.23142C17.3419 9.00229 17.4255 9.85055 17.2627 10.6689C17.0999 11.4873 16.6981 12.239 16.1081 12.829C15.5181 13.419 14.7664 13.8208 13.948 13.9836C13.1297 14.1463 12.2814 14.0628 11.5106 13.7435C10.7397 13.4242 10.0808 12.8834 9.61724 12.1897C9.15368 11.4959 8.90626 10.6803 8.90626 9.84586C8.90626 8.72698 9.35073 7.65393 10.1419 6.86276C10.9331 6.07159 12.0061 5.62712 13.125 5.62712V5.62712ZM5.63157 21.499C5.64783 20.268 6.14808 19.0929 7.02409 18.228C7.9001 17.363 9.08143 16.8777 10.3125 16.8771H15.9375C17.1686 16.8777 18.3499 17.363 19.2259 18.228C20.1019 19.0929 20.6022 20.268 20.6184 21.499C18.5624 23.3518 15.8927 24.3772 13.125 24.3772C10.3573 24.3772 7.68765 23.3518 5.63157 21.499V21.499Z" fill="white"/>
</svg>
